<?xml version="1.0" encoding="UTF-8" standalone="no"?>
<!-- Generator: Adobe Illustrator 19.2.0, SVG Export Plug-In . SVG Version: 6.00 Build 0)  -->

<svg
   xmlns:dc="http://purl.org/dc/elements/1.1/"
   xmlns:cc="http://creativecommons.org/ns#"
   xmlns:rdf="http://www.w3.org/1999/02/22-rdf-syntax-ns#"
   xmlns:svg="http://www.w3.org/2000/svg"
   xmlns="http://www.w3.org/2000/svg"
   xmlns:sodipodi="http://sodipodi.sourceforge.net/DTD/sodipodi-0.dtd"
   xmlns:inkscape="http://www.inkscape.org/namespaces/inkscape"
   version="1.1"
   id="Calque_1"
   x="0px"
   y="0px"
   viewBox="0 0 850 850"
   xml:space="preserve"
   inkscape:version="0.48.4 r9939"
   width="100%"
   height="100%"
   sodipodi:docname="icon.svg"><metadata
     id="metadata15"><rdf:RDF><cc:Work
         rdf:about=""><dc:format>image/svg+xml</dc:format><dc:type
           rdf:resource="http://purl.org/dc/dcmitype/StillImage" /></cc:Work></rdf:RDF></metadata><defs
     id="defs13" /><sodipodi:namedview
     pagecolor="#ffffff"
     bordercolor="#666666"
     borderopacity="1"
     objecttolerance="10"
     gridtolerance="10"
     guidetolerance="10"
     inkscape:pageopacity="0"
     inkscape:pageshadow="2"
     inkscape:window-width="1855"
     inkscape:window-height="1056"
     id="namedview11"
     showgrid="false"
     inkscape:zoom="0.39643877"
     inkscape:cx="420.95"
     inkscape:cy="297.65"
     inkscape:window-x="65"
     inkscape:window-y="24"
     inkscape:window-maximized="1"
     inkscape:current-layer="Calque_1" /><g
     id="g3"
     transform="translate(0,254.70001)"><path
       d="m 118.5,112.6 h 46.3 V 188 h 94.7 l -7.1,59.8 H 164.9 V 435 c 0,20.9 3.8,35.5 11.4,43.8 7.6,8.3 19.3,12.5 35.2,12.5 15.9,0 31.9,-5 48,-14.9 l 21.4,54.8 c -23.9,16.5 -54,24.8 -90.6,24.8 -21.4,0 -39.4,-2.7 -54.1,-8.2 -14.7,-5.4 -25.6,-11.5 -32.7,-18.2 C 96.4,523 90.9,513.2 87.1,500.4 83.3,487.6 81.2,477.5 80.7,470.2 80.2,462.8 80,452 80,437.8 v -190 H 29.5 l 7.1,-52 C 58.9,194 75.8,186 87.1,172 98.5,158 109,138.2 118.5,112.6 z"
       id="path5"
       inkscape:connector-curvature="0" /><path
       d="M 339.1,524.7 V 116.1 c 0,-10.9 -5.9,-16.6 -17.8,-17.1 l -24.9,-1.4 v -59 h 125.3 v 168.7 c 21.4,-19.9 50.1,-29.9 86.1,-29.9 44.6,0 80,15.1 106.1,45.2 26.1,30.1 39.1,72.5 39.1,127 0,137.1 -57.4,205.7 -172.2,205.7 -24.7,0 -50.7,-3 -77.9,-8.9 -27.4,-5.9 -48.6,-13.2 -63.8,-21.7 z m 82.6,-230.6 v 184.3 c 18,9.5 38.9,14.2 62.6,14.2 54.1,0 81.1,-43.9 81.1,-131.7 0,-80.2 -26.6,-120.3 -79.7,-120.3 -17.1,0 -32,5 -44.8,14.9 -12.8,10.1 -19.2,22.9 -19.2,38.6 z"
       id="path7"
       inkscape:connector-curvature="0" /><path
       d="m 760.4,556.7 c -16.6,0 -29.4,-4.6 -38.4,-13.9 -9,-9.3 -13.5,-21.4 -13.5,-36.3 0,-14.9 4.6,-27.3 13.9,-37 9.3,-9.7 21.8,-14.6 37.7,-14.6 15.9,0 28.6,4.6 38.1,13.9 9.5,9.3 14.2,21.4 14.2,36.3 0,14.9 -4.5,27.3 -13.5,37 -9,9.7 -21.8,14.6 -38.5,14.6 z"
       id="path9"
       inkscape:connector-curvature="0" /></g></svg>